# 3ds Max Wavefront OBJ Exporter v0.97b - (c)2007 guruware
# File Created: 12.05.2017 17:48:49

mtllib footer.mtl

#
# object Box001
#

v  597.7819 0.8542 -0.4489
v  -0.9705 0.8542 -0.4489
v  -0.9705 0.8542 3.5608
v  597.7819 0.8542 3.5608
v  -0.9705 0.7937 7.6500
v  597.7819 0.7937 7.6500
v  -0.9705 0.4238 11.5941
v  597.7819 0.4238 11.5941
v  -0.9705 -0.3132 15.6716
v  597.7819 -0.3132 15.6716
v  -0.9705 -1.7955 19.0509
v  597.7819 -1.7955 19.0509
v  -0.9705 -4.0335 21.7632
v  597.7819 -4.0335 21.7632
v  -0.9705 -6.8646 23.6090
v  597.7819 -6.8646 23.6090
v  -0.9705 -8.9613 24.3481
v  597.7819 -8.9613 24.3481
v  -0.9705 -11.7649 24.6464
v  597.7819 -11.7649 24.6464
v  597.7819 -224.4923 -0.4489
v  -0.9705 -224.4923 -0.4489
v  -0.9705 -224.4923 24.6464
v  597.7819 -224.4923 24.6464
v  597.7819 -224.4923 13.4929
v  -0.9705 -224.4923 13.4929
v  -0.9705 -224.4923 10.7045
v  597.7819 -224.4923 10.7045
v  -0.9705 -224.4923 21.8580
v  597.7819 -224.4923 21.8580
v  -0.9705 -224.4923 19.0696
v  597.7819 -224.4923 19.0696
v  -0.9705 -224.4923 16.2813
v  597.7819 -224.4923 16.2813
v  597.7819 -224.4923 2.3394
v  -0.9705 -224.4923 2.3394
v  597.7819 -224.4923 5.1278
v  -0.9705 -224.4923 5.1278
v  597.7819 -224.4923 7.9162
v  -0.9705 -224.4923 7.9162
# 40 vertices

vn 0.0000 1.0000 0.0000
vn 0.0000 1.0000 0.0074
vn 0.0000 0.9985 0.0541
vn 0.0000 0.9907 0.1357
vn 0.0000 0.9565 0.2918
vn 0.0000 0.8517 0.5241
vn 0.0000 0.6664 0.7456
vn 0.0000 0.4425 0.8968
vn 0.0000 0.2206 0.9754
vn 0.0000 0.1058 0.9944
vn 0.0000 0.0000 -1.0000
vn 0.0000 -0.0000 1.0000
vn 0.0000 -1.0000 -0.0000
vn -1.0000 0.0000 -0.0000
vn 1.0000 0.0000 -0.0000
# 15 vertex normals

vt 0.2955 1.0215 0.0000
vt 0.2955 0.0215 0.0000
vt 0.3409 0.0215 0.0000
vt 0.3409 1.0215 0.0000
vt 0.3864 0.0215 0.0000
vt 0.3864 1.0215 0.0000
vt 0.4318 0.0215 0.0000
vt 0.4318 1.0215 0.0000
vt 0.4773 0.0215 0.0000
vt 0.4773 1.0215 0.0000
vt 0.5227 0.0215 0.0000
vt 0.5227 1.0215 0.0000
vt 0.5682 0.0215 0.0000
vt 0.5682 1.0215 0.0000
vt 0.6136 0.0215 0.0000
vt 0.6136 1.0215 0.0000
vt 0.6591 0.0215 0.0000
vt 0.6591 1.0215 0.0000
vt 0.7045 0.0215 0.0000
vt 0.7045 1.0215 0.0000
vt 0.9797 0.0215 0.0000
vt 0.9797 0.9853 0.0000
vt 0.0374 0.9853 0.0000
vt 0.0374 0.0215 0.0000
vt 0.0145 0.9985 0.0000
vt 0.0145 0.0030 0.0000
vt 0.9855 0.0030 0.0000
vt 0.9855 0.9985 0.0000
# 28 texture coords

g Box001
usemtl 07___Default
s off
f 1/1/1 2/2/1 3/3/2 4/4/2 
f 4/4/2 3/3/2 5/5/3 6/6/3 
f 6/6/3 5/5/3 7/7/4 8/8/4 
f 8/8/4 7/7/4 9/9/5 10/10/5 
f 10/10/5 9/9/5 11/11/6 12/12/6 
f 12/12/6 11/11/6 13/13/7 14/14/7 
f 14/14/7 13/13/7 15/15/8 16/16/8 
f 16/16/8 15/15/8 17/17/9 18/18/9 
f 18/18/9 17/17/9 19/19/10 20/20/10 
f 21/21/11 22/22/11 2/23/11 1/24/11 
f 23/25/12 24/26/12 20/27/12 19/28/12 
f 25/2/13 26/1/13 27/1/13 28/2/13 
f 26/1/14 11/1/14 9/1/14 27/1/14 
f 28/2/15 10/2/15 12/2/15 25/2/15 
f 24/2/13 23/1/13 29/1/13 30/2/13 
f 30/2/13 29/1/13 31/1/13 32/2/13 
f 32/2/13 31/1/13 33/1/13 34/2/13 
f 34/2/13 33/1/13 26/1/13 25/2/13 
f 22/1/13 21/2/13 35/2/13 36/1/13 
f 36/1/13 35/2/13 37/2/13 38/1/13 
f 38/1/13 37/2/13 39/2/13 40/1/13 
f 40/1/13 39/2/13 28/2/13 27/1/13 
f 23/1/14 19/1/14 17/1/14 29/1/14 
f 29/1/14 17/1/14 15/1/14 31/1/14 
f 31/1/14 15/1/14 13/1/14 33/1/14 
f 33/1/14 13/1/14 11/1/14 26/1/14 
f 2/1/14 22/1/14 36/1/14 3/1/14 
f 3/1/14 36/1/14 38/1/14 5/1/14 
f 5/1/14 38/1/14 40/1/14 7/1/14 
f 7/1/14 40/1/14 27/1/14 9/1/14 
f 21/2/15 1/2/15 4/2/15 35/2/15 
f 35/2/15 4/2/15 6/2/15 37/2/15 
f 37/2/15 6/2/15 8/2/15 39/2/15 
f 39/2/15 8/2/15 10/2/15 28/2/15 
f 20/2/15 24/2/15 30/2/15 18/2/15 
f 18/2/15 30/2/15 32/2/15 16/2/15 
f 16/2/15 32/2/15 34/2/15 14/2/15 
f 14/2/15 34/2/15 25/2/15 12/2/15 
# 38 polygons

